<svg width="30" height="36" viewBox="0 0 30 36" fill="none" xmlns="http://www.w3.org/2000/svg">
<path d="M9.70776 11.1983H11.9625V29.2359H9.70776V11.1983Z" fill="#B30909"/>
<path d="M14.217 11.1983H16.4717V29.2359H14.217V11.1983Z" fill="#B30909"/>
<path d="M18.7266 11.1983H20.9813V29.2359H18.7266V11.1983Z" fill="#B30909"/>
<path d="M0.688965 4.43428H30V6.68898H0.688965V4.43428Z" fill="#B30909"/>
<path d="M20.9061 5.56158H18.8017V3.30688C18.8017 2.63048 18.2756 2.10439 17.5992 2.10439H13.0898C12.4134 2.10439 11.8873 2.63048 11.8873 3.30688V5.56158H9.78296V3.30688C9.78296 1.50313 11.2861 0 13.0898 0H17.5992C19.403 0 20.9061 1.50313 20.9061 3.30688V5.56158Z" fill="#B30909"/>
<path d="M22.1088 36H8.58059C6.77683 36 5.19855 34.4968 5.04823 32.6931L2.94385 5.6367L5.19854 5.48639L7.30293 32.5428C7.37809 33.2192 7.97934 33.7453 8.58059 33.7453H22.1088C22.7852 33.7453 23.3864 33.144 23.3864 32.5428L25.4908 5.48639L27.7455 5.6367L25.6411 32.6931C25.4908 34.572 23.9125 36 22.1088 36Z" fill="#B30909"/>
</svg>
